<svg xmlns="http://www.w3.org/2000/svg" width="512" height="512" viewBox="0 0 128 128"><rect width="128" height="128" rx="28" fill="#0a0a0b"></rect><rect x="10" y="18" width="8" height="10" rx="2" fill="#c8a96e" opacity="0.5"></rect><rect x="10" y="34" width="8" height="10" rx="2" fill="#c8a96e" opacity="0.5"></rect><rect x="10" y="50" width="8" height="10" rx="2" fill="#c8a96e" opacity="0.5"></rect><rect x="10" y="66" width="8" height="10" rx="2" fill="#c8a96e" opacity="0.5"></rect><rect x="10" y="82" width="8" height="10" rx="2" fill="#c8a96e" opacity="0.5"></rect><rect x="10" y="98" width="8" height="10" rx="2" fill="#c8a96e" opacity="0.5"></rect><rect x="110" y="18" width="8" height="10" rx="2" fill="#c8a96e" opacity="0.5"></rect><rect x="110" y="34" width="8" height="10" rx="2" fill="#c8a96e" opacity="0.5"></rect><rect x="110" y="50" width="8" height="10" rx="2" fill="#c8a96e" opacity="0.5"></rect><rect x="110" y="66" width="8" height="10" rx="2" fill="#c8a96e" opacity="0.5"></rect><rect x="110" y="82" width="8" height="10" rx="2" fill="#c8a96e" opacity="0.5"></rect><rect x="110" y="98" width="8" height="10" rx="2" fill="#c8a96e" opacity="0.5"></rect><text x="64" y="88" text-anchor="middle" font-family="Georgia, serif" font-size="72" font-weight="700" font-style="italic" fill="#c8a96e">F</text></svg>